<mxfile host="app.diagrams.net" modified="2024-01-15T17:04:04.783Z" agent="Mozilla/5.0 (Windows NT 10.0; Win64; x64) AppleWebKit/537.36 (KHTML, like Gecko) Chrome/120.0.0.0 Safari/537.36 OPR/106.0.0.0" etag="IZHKulorvzf90bqEiY3q" version="22.1.18" type="google">
  <diagram name="Page-1" id="74e2e168-ea6b-b213-b513-2b3c1d86103e">
    <mxGraphModel grid="0" page="1" gridSize="10" guides="1" tooltips="1" connect="1" arrows="1" fold="1" pageScale="1" pageWidth="1100" pageHeight="850" background="none" math="0" shadow="0">
      <root>
        <mxCell id="0" />
        <mxCell id="1" parent="0" />
        <mxCell id="fJMSlJAgO1w6E2c3Q90N-22" value="" style="rounded=0;whiteSpace=wrap;html=1;" vertex="1" parent="1">
          <mxGeometry x="30" y="81" width="1572" height="893" as="geometry" />
        </mxCell>
        <mxCell id="A3xNBJ_tQwyECl_-jCEf-2" value="Begin" style="ellipse;whiteSpace=wrap;html=1;fontSize=18;" vertex="1" parent="1">
          <mxGeometry x="181" y="189" width="120" height="64" as="geometry" />
        </mxCell>
        <mxCell id="A3xNBJ_tQwyECl_-jCEf-3" value="n, a[i]" style="shape=parallelogram;perimeter=parallelogramPerimeter;whiteSpace=wrap;html=1;fixedSize=1;fontSize=18;" vertex="1" parent="1">
          <mxGeometry x="181" y="309" width="120" height="60" as="geometry" />
        </mxCell>
        <mxCell id="A3xNBJ_tQwyECl_-jCEf-4" value="" style="endArrow=classic;html=1;rounded=0;exitX=0.5;exitY=1;exitDx=0;exitDy=0;" edge="1" parent="1" source="A3xNBJ_tQwyECl_-jCEf-2" target="A3xNBJ_tQwyECl_-jCEf-3">
          <mxGeometry width="50" height="50" relative="1" as="geometry">
            <mxPoint x="233" y="410" as="sourcePoint" />
            <mxPoint x="283" y="360" as="targetPoint" />
          </mxGeometry>
        </mxCell>
        <mxCell id="A3xNBJ_tQwyECl_-jCEf-6" value="" style="endArrow=classic;html=1;rounded=0;exitX=0.5;exitY=1;exitDx=0;exitDy=0;" edge="1" parent="1" target="A3xNBJ_tQwyECl_-jCEf-7">
          <mxGeometry width="50" height="50" relative="1" as="geometry">
            <mxPoint x="240.5" y="369" as="sourcePoint" />
            <mxPoint x="240.5" y="425" as="targetPoint" />
          </mxGeometry>
        </mxCell>
        <mxCell id="A3xNBJ_tQwyECl_-jCEf-7" value="max = a[i]&lt;br&gt;k = 0" style="rounded=0;whiteSpace=wrap;html=1;fontSize=18;" vertex="1" parent="1">
          <mxGeometry x="181" y="422" width="120" height="60" as="geometry" />
        </mxCell>
        <mxCell id="A3xNBJ_tQwyECl_-jCEf-8" value="" style="endArrow=classic;html=1;rounded=0;exitX=0.5;exitY=1;exitDx=0;exitDy=0;" edge="1" parent="1">
          <mxGeometry width="50" height="50" relative="1" as="geometry">
            <mxPoint x="240.63" y="482" as="sourcePoint" />
            <mxPoint x="241.13" y="535" as="targetPoint" />
          </mxGeometry>
        </mxCell>
        <mxCell id="A3xNBJ_tQwyECl_-jCEf-9" value="Найти сумму элементов массива, лежащих между максимальным и минимальным по значению элементами - Бердюгин А.А." style="text;html=1;strokeColor=none;fillColor=none;align=center;verticalAlign=middle;whiteSpace=wrap;rounded=0;fontSize=20;" vertex="1" parent="1">
          <mxGeometry x="216" y="101" width="1177" height="58" as="geometry" />
        </mxCell>
        <mxCell id="A3xNBJ_tQwyECl_-jCEf-10" value="&lt;font style=&quot;font-size: 18px;&quot;&gt;for i = 0 .. n, шаг 1&lt;/font&gt;" style="shape=hexagon;perimeter=hexagonPerimeter2;whiteSpace=wrap;html=1;fixedSize=1;" vertex="1" parent="1">
          <mxGeometry x="144.75" y="535" width="192.5" height="37" as="geometry" />
        </mxCell>
        <mxCell id="A3xNBJ_tQwyECl_-jCEf-11" value="" style="endArrow=classic;html=1;rounded=0;exitX=0.5;exitY=1;exitDx=0;exitDy=0;" edge="1" parent="1">
          <mxGeometry width="50" height="50" relative="1" as="geometry">
            <mxPoint x="240.63" y="574" as="sourcePoint" />
            <mxPoint x="241.13" y="627" as="targetPoint" />
          </mxGeometry>
        </mxCell>
        <mxCell id="A3xNBJ_tQwyECl_-jCEf-12" value="a[i] &amp;gt; max ?" style="rhombus;whiteSpace=wrap;html=1;fontSize=18;" vertex="1" parent="1">
          <mxGeometry x="164.5" y="629" width="153" height="76" as="geometry" />
        </mxCell>
        <mxCell id="A3xNBJ_tQwyECl_-jCEf-13" value="" style="endArrow=classic;html=1;rounded=0;exitX=0.5;exitY=1;exitDx=0;exitDy=0;" edge="1" parent="1">
          <mxGeometry width="50" height="50" relative="1" as="geometry">
            <mxPoint x="240.63" y="708" as="sourcePoint" />
            <mxPoint x="241.13" y="761" as="targetPoint" />
          </mxGeometry>
        </mxCell>
        <mxCell id="A3xNBJ_tQwyECl_-jCEf-15" value="Yes" style="text;html=1;strokeColor=none;fillColor=none;align=center;verticalAlign=middle;whiteSpace=wrap;rounded=0;fontSize=15;" vertex="1" parent="1">
          <mxGeometry x="245" y="714" width="60" height="30" as="geometry" />
        </mxCell>
        <mxCell id="A3xNBJ_tQwyECl_-jCEf-16" value="" style="endArrow=classic;html=1;rounded=0;exitX=1;exitY=0.5;exitDx=0;exitDy=0;entryX=0;entryY=0.5;entryDx=0;entryDy=0;" edge="1" parent="1" source="A3xNBJ_tQwyECl_-jCEf-10" target="A3xNBJ_tQwyECl_-jCEf-41">
          <mxGeometry width="50" height="50" relative="1" as="geometry">
            <mxPoint x="371" y="557" as="sourcePoint" />
            <mxPoint x="404" y="553" as="targetPoint" />
            <Array as="points">
              <mxPoint x="439" y="557" />
              <mxPoint x="442" y="443" />
            </Array>
          </mxGeometry>
        </mxCell>
        <mxCell id="A3xNBJ_tQwyECl_-jCEf-17" value="No" style="text;html=1;strokeColor=none;fillColor=none;align=center;verticalAlign=middle;whiteSpace=wrap;rounded=0;fontSize=15;" vertex="1" parent="1">
          <mxGeometry x="352" y="517" width="60" height="30" as="geometry" />
        </mxCell>
        <mxCell id="A3xNBJ_tQwyECl_-jCEf-19" value="max = a[i]&lt;br&gt;k = i" style="rounded=0;whiteSpace=wrap;html=1;fontSize=18;" vertex="1" parent="1">
          <mxGeometry x="181" y="762" width="120" height="60" as="geometry" />
        </mxCell>
        <mxCell id="A3xNBJ_tQwyECl_-jCEf-20" value="" style="endArrow=classic;html=1;rounded=0;exitX=0.004;exitY=0.609;exitDx=0;exitDy=0;exitPerimeter=0;" edge="1" parent="1">
          <mxGeometry width="50" height="50" relative="1" as="geometry">
            <mxPoint x="180.99999999999991" y="790.54" as="sourcePoint" />
            <mxPoint x="149" y="553" as="targetPoint" />
            <Array as="points">
              <mxPoint x="96.52" y="791" />
              <mxPoint x="94" y="553" />
            </Array>
          </mxGeometry>
        </mxCell>
        <mxCell id="A3xNBJ_tQwyECl_-jCEf-41" value="min = a[i]&lt;br&gt;k = 0" style="rounded=0;whiteSpace=wrap;html=1;fontSize=18;" vertex="1" parent="1">
          <mxGeometry x="651" y="413" width="120" height="60" as="geometry" />
        </mxCell>
        <mxCell id="A3xNBJ_tQwyECl_-jCEf-42" value="" style="endArrow=classic;html=1;rounded=0;exitX=0.5;exitY=1;exitDx=0;exitDy=0;" edge="1" parent="1">
          <mxGeometry width="50" height="50" relative="1" as="geometry">
            <mxPoint x="710.63" y="473" as="sourcePoint" />
            <mxPoint x="711.13" y="526" as="targetPoint" />
          </mxGeometry>
        </mxCell>
        <mxCell id="A3xNBJ_tQwyECl_-jCEf-43" value="&lt;font style=&quot;font-size: 18px;&quot;&gt;for i = 0 .. n, шаг 1&lt;/font&gt;" style="shape=hexagon;perimeter=hexagonPerimeter2;whiteSpace=wrap;html=1;fixedSize=1;" vertex="1" parent="1">
          <mxGeometry x="614.25" y="526" width="193.5" height="37" as="geometry" />
        </mxCell>
        <mxCell id="A3xNBJ_tQwyECl_-jCEf-44" value="" style="endArrow=classic;html=1;rounded=0;exitX=0.5;exitY=1;exitDx=0;exitDy=0;" edge="1" parent="1">
          <mxGeometry width="50" height="50" relative="1" as="geometry">
            <mxPoint x="710.63" y="565" as="sourcePoint" />
            <mxPoint x="711.13" y="618" as="targetPoint" />
          </mxGeometry>
        </mxCell>
        <mxCell id="A3xNBJ_tQwyECl_-jCEf-45" value="a[i] &amp;lt; min ?" style="rhombus;whiteSpace=wrap;html=1;fontSize=18;" vertex="1" parent="1">
          <mxGeometry x="634.5" y="620" width="153" height="76" as="geometry" />
        </mxCell>
        <mxCell id="A3xNBJ_tQwyECl_-jCEf-46" value="" style="endArrow=classic;html=1;rounded=0;exitX=0.5;exitY=1;exitDx=0;exitDy=0;" edge="1" parent="1">
          <mxGeometry width="50" height="50" relative="1" as="geometry">
            <mxPoint x="710.63" y="699" as="sourcePoint" />
            <mxPoint x="711.13" y="752" as="targetPoint" />
          </mxGeometry>
        </mxCell>
        <mxCell id="A3xNBJ_tQwyECl_-jCEf-47" value="Yes" style="text;html=1;strokeColor=none;fillColor=none;align=center;verticalAlign=middle;whiteSpace=wrap;rounded=0;fontSize=15;" vertex="1" parent="1">
          <mxGeometry x="715" y="705" width="60" height="30" as="geometry" />
        </mxCell>
        <mxCell id="A3xNBJ_tQwyECl_-jCEf-48" value="" style="endArrow=classic;html=1;rounded=0;exitX=1;exitY=0.5;exitDx=0;exitDy=0;" edge="1" parent="1" source="A3xNBJ_tQwyECl_-jCEf-43">
          <mxGeometry width="50" height="50" relative="1" as="geometry">
            <mxPoint x="841" y="548" as="sourcePoint" />
            <mxPoint x="874" y="544" as="targetPoint" />
          </mxGeometry>
        </mxCell>
        <mxCell id="A3xNBJ_tQwyECl_-jCEf-49" value="No" style="text;html=1;strokeColor=none;fillColor=none;align=center;verticalAlign=middle;whiteSpace=wrap;rounded=0;fontSize=15;" vertex="1" parent="1">
          <mxGeometry x="798.5" y="514" width="60" height="30" as="geometry" />
        </mxCell>
        <mxCell id="A3xNBJ_tQwyECl_-jCEf-51" value="min = a[i]&lt;br&gt;k = i" style="rounded=0;whiteSpace=wrap;html=1;fontSize=18;" vertex="1" parent="1">
          <mxGeometry x="651" y="753" width="120" height="60" as="geometry" />
        </mxCell>
        <mxCell id="A3xNBJ_tQwyECl_-jCEf-52" value="" style="endArrow=classic;html=1;rounded=0;exitX=0.004;exitY=0.609;exitDx=0;exitDy=0;exitPerimeter=0;entryX=0;entryY=0.5;entryDx=0;entryDy=0;" edge="1" parent="1" target="A3xNBJ_tQwyECl_-jCEf-43">
          <mxGeometry width="50" height="50" relative="1" as="geometry">
            <mxPoint x="650.9999999999999" y="781.54" as="sourcePoint" />
            <mxPoint x="623" y="544" as="targetPoint" />
            <Array as="points">
              <mxPoint x="566.52" y="782" />
              <mxPoint x="564" y="544" />
            </Array>
          </mxGeometry>
        </mxCell>
        <mxCell id="oNAdB-VNlKd--NzeKWZQ-4" value="kmax&lt;br style=&quot;border-color: var(--border-color); font-size: 16px;&quot;&gt;&lt;span style=&quot;font-size: 16px;&quot;&gt;kmin&lt;/span&gt;" style="rounded=0;whiteSpace=wrap;html=1;fontSize=16;" vertex="1" parent="1">
          <mxGeometry x="874" y="517" width="88" height="60" as="geometry" />
        </mxCell>
        <mxCell id="oNAdB-VNlKd--NzeKWZQ-5" value="&lt;font style=&quot;font-size: 18px;&quot;&gt;kmax &amp;lt; kmin ?&lt;/font&gt;" style="rhombus;whiteSpace=wrap;html=1;" vertex="1" parent="1">
          <mxGeometry x="991" y="500.5" width="184" height="88" as="geometry" />
        </mxCell>
        <mxCell id="oNAdB-VNlKd--NzeKWZQ-6" value="" style="endArrow=classic;html=1;rounded=0;exitX=1;exitY=0.5;exitDx=0;exitDy=0;entryX=0;entryY=0.5;entryDx=0;entryDy=0;" edge="1" parent="1" source="oNAdB-VNlKd--NzeKWZQ-4" target="oNAdB-VNlKd--NzeKWZQ-5">
          <mxGeometry width="50" height="50" relative="1" as="geometry">
            <mxPoint x="954" y="653" as="sourcePoint" />
            <mxPoint x="1004" y="603" as="targetPoint" />
          </mxGeometry>
        </mxCell>
        <mxCell id="AfmyJl_slF6E5mCU8h74-3" value="Yes" style="text;html=1;strokeColor=none;fillColor=none;align=center;verticalAlign=middle;whiteSpace=wrap;rounded=0;fontSize=15;" vertex="1" parent="1">
          <mxGeometry x="1033" y="452" width="60" height="30" as="geometry" />
        </mxCell>
        <mxCell id="AfmyJl_slF6E5mCU8h74-4" value="" style="endArrow=classic;html=1;rounded=0;exitX=0.5;exitY=0;exitDx=0;exitDy=0;" edge="1" parent="1" source="oNAdB-VNlKd--NzeKWZQ-5">
          <mxGeometry width="50" height="50" relative="1" as="geometry">
            <mxPoint x="1022.5" y="569.5" as="sourcePoint" />
            <mxPoint x="1265" y="417" as="targetPoint" />
            <Array as="points">
              <mxPoint x="1084" y="419" />
            </Array>
          </mxGeometry>
        </mxCell>
        <mxCell id="AfmyJl_slF6E5mCU8h74-7" value="" style="endArrow=classic;html=1;rounded=0;exitX=0.5;exitY=1;exitDx=0;exitDy=0;" edge="1" parent="1" source="oNAdB-VNlKd--NzeKWZQ-5">
          <mxGeometry width="50" height="50" relative="1" as="geometry">
            <mxPoint x="1116" y="715" as="sourcePoint" />
            <mxPoint x="1083" y="686" as="targetPoint" />
          </mxGeometry>
        </mxCell>
        <mxCell id="fJMSlJAgO1w6E2c3Q90N-1" value="&lt;font style=&quot;font-size: 18px;&quot;&gt;Sum = 0&lt;/font&gt;" style="rounded=0;whiteSpace=wrap;html=1;" vertex="1" parent="1">
          <mxGeometry x="1268" y="382" width="120" height="60" as="geometry" />
        </mxCell>
        <mxCell id="fJMSlJAgO1w6E2c3Q90N-2" value="" style="endArrow=classic;html=1;rounded=0;exitX=0.465;exitY=1.007;exitDx=0;exitDy=0;exitPerimeter=0;" edge="1" parent="1" source="fJMSlJAgO1w6E2c3Q90N-1" target="fJMSlJAgO1w6E2c3Q90N-3">
          <mxGeometry width="50" height="50" relative="1" as="geometry">
            <mxPoint x="1430" y="591" as="sourcePoint" />
            <mxPoint x="1324" y="499" as="targetPoint" />
          </mxGeometry>
        </mxCell>
        <mxCell id="fJMSlJAgO1w6E2c3Q90N-3" value="&lt;font style=&quot;font-size: 18px;&quot;&gt;for i = kmax .. kmin, шаг 1&lt;/font&gt;" style="shape=hexagon;perimeter=hexagonPerimeter2;whiteSpace=wrap;html=1;fixedSize=1;" vertex="1" parent="1">
          <mxGeometry x="1201" y="492" width="245" height="34" as="geometry" />
        </mxCell>
        <mxCell id="fJMSlJAgO1w6E2c3Q90N-4" value="&lt;font style=&quot;font-size: 18px;&quot;&gt;Sum += a[i]&lt;/font&gt;" style="rounded=0;whiteSpace=wrap;html=1;" vertex="1" parent="1">
          <mxGeometry x="1263.5" y="577" width="120" height="39.5" as="geometry" />
        </mxCell>
        <mxCell id="fJMSlJAgO1w6E2c3Q90N-5" value="" style="endArrow=classic;html=1;rounded=0;exitX=0.5;exitY=1;exitDx=0;exitDy=0;entryX=0.5;entryY=0;entryDx=0;entryDy=0;" edge="1" parent="1" source="fJMSlJAgO1w6E2c3Q90N-3" target="fJMSlJAgO1w6E2c3Q90N-4">
          <mxGeometry width="50" height="50" relative="1" as="geometry">
            <mxPoint x="1430" y="589" as="sourcePoint" />
            <mxPoint x="1319" y="588" as="targetPoint" />
          </mxGeometry>
        </mxCell>
        <mxCell id="fJMSlJAgO1w6E2c3Q90N-6" value="" style="endArrow=classic;html=1;rounded=0;exitX=0;exitY=0.5;exitDx=0;exitDy=0;entryX=0;entryY=0.5;entryDx=0;entryDy=0;" edge="1" parent="1" source="fJMSlJAgO1w6E2c3Q90N-4" target="fJMSlJAgO1w6E2c3Q90N-3">
          <mxGeometry width="50" height="50" relative="1" as="geometry">
            <mxPoint x="1430" y="588" as="sourcePoint" />
            <mxPoint x="1480" y="538" as="targetPoint" />
            <Array as="points">
              <mxPoint x="1186" y="597" />
              <mxPoint x="1185" y="509" />
            </Array>
          </mxGeometry>
        </mxCell>
        <mxCell id="fJMSlJAgO1w6E2c3Q90N-7" value="&lt;font style=&quot;font-size: 18px;&quot;&gt;Sum&lt;/font&gt;" style="shape=document;whiteSpace=wrap;html=1;boundedLbl=1;" vertex="1" parent="1">
          <mxGeometry x="1466" y="492" width="51" height="45" as="geometry" />
        </mxCell>
        <mxCell id="fJMSlJAgO1w6E2c3Q90N-8" value="" style="endArrow=classic;html=1;rounded=0;exitX=1;exitY=0.5;exitDx=0;exitDy=0;entryX=-0.007;entryY=0.385;entryDx=0;entryDy=0;entryPerimeter=0;" edge="1" parent="1" source="fJMSlJAgO1w6E2c3Q90N-3" target="fJMSlJAgO1w6E2c3Q90N-7">
          <mxGeometry width="50" height="50" relative="1" as="geometry">
            <mxPoint x="1446" y="510" as="sourcePoint" />
            <mxPoint x="1496" y="460" as="targetPoint" />
          </mxGeometry>
        </mxCell>
        <mxCell id="fJMSlJAgO1w6E2c3Q90N-9" value="" style="endArrow=classic;html=1;rounded=0;exitX=0.44;exitY=0.931;exitDx=0;exitDy=0;exitPerimeter=0;" edge="1" parent="1" source="fJMSlJAgO1w6E2c3Q90N-7">
          <mxGeometry width="50" height="50" relative="1" as="geometry">
            <mxPoint x="1522" y="498" as="sourcePoint" />
            <mxPoint x="1488" y="563" as="targetPoint" />
          </mxGeometry>
        </mxCell>
        <mxCell id="fJMSlJAgO1w6E2c3Q90N-10" value="No" style="text;html=1;strokeColor=none;fillColor=none;align=center;verticalAlign=middle;whiteSpace=wrap;rounded=0;fontSize=15;" vertex="1" parent="1">
          <mxGeometry x="1025" y="616.5" width="60" height="30" as="geometry" />
        </mxCell>
        <mxCell id="fJMSlJAgO1w6E2c3Q90N-11" value="&lt;font style=&quot;font-size: 18px;&quot;&gt;End&lt;/font&gt;" style="ellipse;whiteSpace=wrap;html=1;" vertex="1" parent="1">
          <mxGeometry x="1452" y="563" width="74" height="49" as="geometry" />
        </mxCell>
        <mxCell id="fJMSlJAgO1w6E2c3Q90N-12" value="&lt;font style=&quot;font-size: 18px;&quot;&gt;Sum = 0&lt;/font&gt;" style="rounded=0;whiteSpace=wrap;html=1;" vertex="1" parent="1">
          <mxGeometry x="1029" y="685" width="120" height="60" as="geometry" />
        </mxCell>
        <mxCell id="fJMSlJAgO1w6E2c3Q90N-13" value="" style="endArrow=classic;html=1;rounded=0;exitX=0.465;exitY=1.007;exitDx=0;exitDy=0;exitPerimeter=0;" edge="1" parent="1" source="fJMSlJAgO1w6E2c3Q90N-12" target="fJMSlJAgO1w6E2c3Q90N-14">
          <mxGeometry width="50" height="50" relative="1" as="geometry">
            <mxPoint x="1191" y="894" as="sourcePoint" />
            <mxPoint x="1085" y="802" as="targetPoint" />
          </mxGeometry>
        </mxCell>
        <mxCell id="fJMSlJAgO1w6E2c3Q90N-14" value="&lt;font style=&quot;font-size: 18px;&quot;&gt;for i = kmin .. kmax, шаг 1&lt;/font&gt;" style="shape=hexagon;perimeter=hexagonPerimeter2;whiteSpace=wrap;html=1;fixedSize=1;" vertex="1" parent="1">
          <mxGeometry x="962" y="795" width="245" height="34" as="geometry" />
        </mxCell>
        <mxCell id="fJMSlJAgO1w6E2c3Q90N-15" value="&lt;font style=&quot;font-size: 18px;&quot;&gt;Sum += a[i]&lt;/font&gt;" style="rounded=0;whiteSpace=wrap;html=1;" vertex="1" parent="1">
          <mxGeometry x="1024.5" y="880" width="120" height="39.5" as="geometry" />
        </mxCell>
        <mxCell id="fJMSlJAgO1w6E2c3Q90N-16" value="" style="endArrow=classic;html=1;rounded=0;exitX=0.5;exitY=1;exitDx=0;exitDy=0;entryX=0.5;entryY=0;entryDx=0;entryDy=0;" edge="1" parent="1" source="fJMSlJAgO1w6E2c3Q90N-14" target="fJMSlJAgO1w6E2c3Q90N-15">
          <mxGeometry width="50" height="50" relative="1" as="geometry">
            <mxPoint x="1191" y="892" as="sourcePoint" />
            <mxPoint x="1080" y="891" as="targetPoint" />
          </mxGeometry>
        </mxCell>
        <mxCell id="fJMSlJAgO1w6E2c3Q90N-17" value="" style="endArrow=classic;html=1;rounded=0;exitX=0;exitY=0.5;exitDx=0;exitDy=0;entryX=0;entryY=0.5;entryDx=0;entryDy=0;" edge="1" parent="1" source="fJMSlJAgO1w6E2c3Q90N-15" target="fJMSlJAgO1w6E2c3Q90N-14">
          <mxGeometry width="50" height="50" relative="1" as="geometry">
            <mxPoint x="1191" y="891" as="sourcePoint" />
            <mxPoint x="1241" y="841" as="targetPoint" />
            <Array as="points">
              <mxPoint x="947" y="900" />
              <mxPoint x="946" y="812" />
            </Array>
          </mxGeometry>
        </mxCell>
        <mxCell id="fJMSlJAgO1w6E2c3Q90N-18" value="&lt;font style=&quot;font-size: 18px;&quot;&gt;Sum&lt;/font&gt;" style="shape=document;whiteSpace=wrap;html=1;boundedLbl=1;" vertex="1" parent="1">
          <mxGeometry x="1227" y="795" width="51" height="45" as="geometry" />
        </mxCell>
        <mxCell id="fJMSlJAgO1w6E2c3Q90N-19" value="" style="endArrow=classic;html=1;rounded=0;exitX=1;exitY=0.5;exitDx=0;exitDy=0;entryX=-0.007;entryY=0.385;entryDx=0;entryDy=0;entryPerimeter=0;" edge="1" parent="1" source="fJMSlJAgO1w6E2c3Q90N-14" target="fJMSlJAgO1w6E2c3Q90N-18">
          <mxGeometry width="50" height="50" relative="1" as="geometry">
            <mxPoint x="1207" y="813" as="sourcePoint" />
            <mxPoint x="1257" y="763" as="targetPoint" />
          </mxGeometry>
        </mxCell>
        <mxCell id="fJMSlJAgO1w6E2c3Q90N-20" value="" style="endArrow=classic;html=1;rounded=0;exitX=0.44;exitY=0.931;exitDx=0;exitDy=0;exitPerimeter=0;" edge="1" parent="1" source="fJMSlJAgO1w6E2c3Q90N-18">
          <mxGeometry width="50" height="50" relative="1" as="geometry">
            <mxPoint x="1283" y="801" as="sourcePoint" />
            <mxPoint x="1249" y="866" as="targetPoint" />
          </mxGeometry>
        </mxCell>
        <mxCell id="fJMSlJAgO1w6E2c3Q90N-21" value="&lt;font style=&quot;font-size: 18px;&quot;&gt;End&lt;/font&gt;" style="ellipse;whiteSpace=wrap;html=1;" vertex="1" parent="1">
          <mxGeometry x="1213" y="866" width="74" height="49" as="geometry" />
        </mxCell>
      </root>
    </mxGraphModel>
  </diagram>
</mxfile>
